<?xml version="1.0" standalone="no"?>
<!DOCTYPE svg PUBLIC "-//W3C//DTD SVG 20010904//EN"
 "http://www.w3.org/TR/2001/REC-SVG-20010904/DTD/svg10.dtd">
<svg version="1.0" xmlns="http://www.w3.org/2000/svg"
 width="225.000000pt" height="225.000000pt" viewBox="0 0 225.000000 225.000000"
 preserveAspectRatio="xMidYMid meet">

<g transform="translate(0.000000,225.000000) scale(0.100000,-0.100000)"
fill="#000000" stroke="none">
<path d="M1913 1483 c-23 -4 -23 -7 -23 -159 l0 -154 25 0 25 0 0 160 c0 88
-1 159 -2 159 -2 -1 -13 -4 -25 -6z"/>
<path d="M820 1326 l0 -156 30 0 30 0 0 60 0 60 68 0 c78 0 105 14 122 64 12
39 3 71 -30 101 -18 17 -39 21 -121 23 l-99 4 0 -156z m182 87 c21 -19 23 -44
6 -61 -7 -7 -38 -12 -70 -12 l-58 0 0 45 0 45 52 0 c34 0 58 -6 70 -17z"/>
<path d="M1520 1431 l0 -49 -29 11 c-44 16 -107 -6 -132 -46 -30 -47 -21 -112
20 -149 28 -25 36 -27 116 -27 l85 1 0 154 0 154 -30 0 c-29 0 -30 -1 -30 -49z
m-16 -87 c25 -10 22 -110 -3 -124 -29 -15 -56 -12 -79 8 -67 56 -2 148 82 116z"/>
<path d="M1138 1389 c-30 -11 -32 -16 -19 -37 6 -11 17 -11 47 -3 30 8 43 8
61 -4 41 -27 29 -45 -30 -45 -67 0 -97 -20 -97 -64 0 -53 23 -66 118 -64 l82
1 0 87 c0 110 -13 131 -86 136 -27 2 -61 -1 -76 -7z m90 -125 c31 -9 29 -42
-5 -55 -51 -19 -99 25 -55 50 20 12 29 13 60 5z"/>
<path d="M1684 1391 c-38 -17 -64 -60 -64 -108 0 -38 5 -50 34 -79 29 -29 40
-34 82 -34 27 1 59 6 72 13 22 13 22 14 5 30 -13 11 -23 13 -33 7 -27 -17 -66
-11 -89 14 -29 31 -17 38 62 36 89 -2 87 -3 87 30 0 45 -45 90 -95 95 -22 3
-50 1 -61 -4z m90 -57 c27 -27 18 -34 -44 -34 -33 0 -60 3 -60 7 0 3 7 15 17
25 20 22 66 24 87 2z"/>
<path d="M345 1155 c-129 -46 -134 -219 -8 -284 25 -13 233 -15 233 -2 0 4
-24 73 -53 152 l-54 144 -39 2 c-21 2 -57 -4 -79 -12z"/>
<path d="M878 1075 c-35 -20 -58 -64 -58 -110 0 -26 9 -45 33 -72 30 -32 40
-36 80 -36 26 0 57 7 72 17 25 17 26 19 10 36 -16 17 -19 18 -41 4 -31 -21
-63 -14 -87 18 -17 22 -18 33 -11 60 12 41 50 58 96 40 27 -10 33 -9 44 6 10
14 9 19 -8 31 -30 21 -98 24 -130 6z"/>
<path d="M1092 1079 c-27 -8 -31 -13 -23 -27 7 -12 23 -17 68 -17 54 0 58 -2
61 -25 3 -24 1 -25 -43 -22 -74 6 -124 -44 -96 -97 13 -24 74 -43 104 -32 12
4 39 6 61 3 l38 -4 -3 92 c-4 86 -6 93 -32 116 -30 26 -75 30 -135 13z m86
-125 c27 -8 29 -39 3 -54 -27 -14 -47 -13 -65 5 -24 24 -10 45 34 54 3 0 15
-2 28 -5z"/>
<path d="M1386 1083 c-4 -4 -22 -6 -41 -5 l-35 3 0 -111 0 -110 25 0 c25 0 25
1 25 85 0 83 0 85 27 91 47 12 58 -5 61 -95 l3 -81 29 0 29 0 3 88 3 87 30 3
c42 5 55 -19 55 -105 0 -71 1 -73 25 -73 25 0 25 1 25 90 0 83 -2 93 -25 115
-28 29 -66 32 -108 10 -26 -13 -31 -13 -50 0 -22 16 -69 20 -81 8z"/>
<path d="M1798 1084 c-5 -4 -28 -6 -53 -6 l-45 2 0 -155 0 -155 30 0 c29 0 30
1 30 48 l0 47 50 -3 c62 -5 95 14 117 65 19 47 10 92 -26 127 -28 27 -89 45
-103 30z m67 -64 c54 -60 -15 -148 -86 -110 -15 9 -19 22 -19 65 0 33 5 55 13
58 30 13 75 6 92 -13z"/>
</g>
</svg>
